<svg xmlns="http://www.w3.org/2000/svg" width="120" height="120" viewBox="0 0 120 120" style="overflow:visible"><defs><radialGradient id="sg-wo75m9" cx="50%" cy="50%" r="50%"><stop offset="0%" stop-color="hsla(0, 93.50000000000001%, 34.6%, 0.95)"/><stop offset="100%" stop-color="hsla(0, 85%, 28.6%, 0.85)"/></radialGradient></defs><line x1="60" y1="10.625" x2="60" y2="7.225000000000001" stroke="hsl(0, 85%, 28.6%)" stroke-width="3.0" stroke-linecap="round"/><line x1="94.9133973210858" y1="25.08660267891422" x2="97.31756037712005" y2="22.68243962287996" stroke="hsl(0, 85%, 28.6%)" stroke-width="3.0" stroke-linecap="round"/><line x1="109.375" y1="60" x2="112.775" y2="60" stroke="hsl(0, 85%, 28.6%)" stroke-width="3.0" stroke-linecap="round"/><line x1="94.9133973210858" y1="94.91339732108578" x2="97.31756037712005" y2="97.31756037712003" stroke="hsl(0, 85%, 28.6%)" stroke-width="3.0" stroke-linecap="round"/><line x1="60" y1="109.375" x2="60" y2="112.775" stroke="hsl(0, 85%, 28.6%)" stroke-width="3.0" stroke-linecap="round"/><line x1="25.08660267891422" y1="94.9133973210858" x2="22.68243962287996" y2="97.31756037712005" stroke="hsl(0, 85%, 28.6%)" stroke-width="3.0" stroke-linecap="round"/><line x1="10.625" y1="60.00000000000001" x2="7.225000000000001" y2="60.00000000000001" stroke="hsl(0, 85%, 28.6%)" stroke-width="3.0" stroke-linecap="round"/><line x1="25.08660267891421" y1="25.08660267891422" x2="22.682439622879947" y2="22.68243962287996" stroke="hsl(0, 85%, 28.6%)" stroke-width="3.0" stroke-linecap="round"/><circle cx="60" cy="60" r="33.75" fill="none"/><path d="M60,28.25L62.43003979551832,54.13336496855332L82.45064030267288,37.54935969732712L65.86663503144668,57.56996020448168L91.75,60L65.86663503144668,62.43003979551832L82.45064030267288,82.45064030267288L62.43003979551832,65.86663503144668L60,91.75L57.56996020448168,65.86663503144668L37.54935969732712,82.45064030267288L54.13336496855333,62.430039795518326L28.25,60.00000000000001L54.13336496855333,57.569960204481674L37.54935969732711,37.54935969732712L57.569960204481674,54.13336496855333Z" fill="url(#sg-wo75m9)" stroke="none"/><path d="M27.493093734000233,40.07974222020445 A38.125,38.125 0 0,1 92.50690626599976,40.07974222020445 L88.77660554695062,42.36567344083673 A33.75,33.75 0 0,0 31.223394453049387,42.36567344083672 Z" fill="hsl(0, 85%, 28.6%)"/><path d="M22.483832768419944,37.01006315249825 A44,44 0 0,1 97.51616723158006,37.010063152498255 L93.7858665125309,39.295994373130526 A39.625,39.625 0 0,0 26.2141334874691,39.295994373130526 Z" fill="hsl(0, 85%, 28.6%)"/><path d="M93.50490242023743,41.80832226510243 A38.125,38.125 0 0,1 60.99799615423766,98.11193551469313 L60.88347200539072,93.73843471792506 A33.75,33.75 0 0,0 89.66007755234133,43.89589184123822 Z" fill="hsl(0, 85%, 28.6%)"/><path d="M98.66795295712647,39.00501454857723 A44,44 0 0,1 61.15178572554642,103.98492229892452 L61.03726157669947,99.61142150215645 A39.625,39.625 0 0,0 94.82312808923038,41.092584124713014 Z" fill="hsl(0, 85%, 28.6%)"/><path d="M59.00200384576234,98.11193551469313 A38.125,38.125 0 0,1 26.49509757976257,41.80832226510243 L30.33992244765867,43.89589184123822 A33.75,33.75 0 0,0 59.116527994609285,93.73843471792506 Z" fill="hsl(0, 85%, 28.6%)"/><path d="M58.84821427445359,103.98492229892452 A44,44 0 0,1 21.332047042873526,39.00501454857723 L25.17687191076962,41.092584124713014 A39.625,39.625 0 0,0 58.96273842330053,99.61142150215645 Z" fill="hsl(0, 85%, 28.6%)"/><circle cx="60" cy="60" r="47.6875" fill="none" stroke="hsl(0, 85%, 28.6%)" stroke-width="4.375"/></svg>