<svg xmlns="http://www.w3.org/2000/svg" width="120" height="120" viewBox="0 0 120 120" style="overflow:visible"><defs><radialGradient id="sg-avkyvd" cx="50%" cy="50%" r="50%"><stop offset="0%" stop-color="hsla(22.000000000000004, 98.34000000000002%, 55.192%, 0.95)"/><stop offset="100%" stop-color="hsla(22.000000000000004, 89.4%, 49.192%, 0.85)"/></radialGradient></defs><line x1="60" y1="10.625" x2="60" y2="7.225000000000001" stroke="hsl(22.000000000000004, 89.4%, 49.192%)" stroke-width="3.0" stroke-linecap="round"/><line x1="109.375" y1="60" x2="112.775" y2="60" stroke="hsl(22.000000000000004, 89.4%, 49.192%)" stroke-width="3.0" stroke-linecap="round"/><line x1="60" y1="109.375" x2="60" y2="112.775" stroke="hsl(22.000000000000004, 89.4%, 49.192%)" stroke-width="3.0" stroke-linecap="round"/><line x1="10.625" y1="60.00000000000001" x2="7.225000000000001" y2="60.00000000000001" stroke="hsl(22.000000000000004, 89.4%, 49.192%)" stroke-width="3.0" stroke-linecap="round"/><circle cx="60" cy="60" r="33.75" fill="none"/><path d="M60,28.25L69.20476252409588,50.795237475904116L91.75,60L69.20476252409588,69.20476252409588L60,91.75L50.795237475904116,69.20476252409588L28.25,60.00000000000001L50.795237475904116,50.795237475904116Z" fill="url(#sg-avkyvd)" stroke="none"/><path d="M60,28.25L69.20476252409588,50.795237475904116L91.75,60L69.20476252409588,69.20476252409588L60,91.75L50.795237475904116,69.20476252409588L28.25,60.00000000000001L50.795237475904116,50.795237475904116Z" fill="none" stroke="hsl(22.000000000000004, 89.4%, 68.11200000000001%)" stroke-width="1" stroke-linejoin="round"/><clipPath id="at-avkyvd"><path d="M21.631192604065852,36.4875645877823 A45,45 0 0,1 23.594235253127373,33.5496636468387 L33.50469343422047,40.750032987421505 A32.75,32.75 0 0,0 32.07603461740348,42.888172005552676 Z"/><path d="M25.02843173443631,31.680582402757317 A45,45 0 0,1 27.089083427137332,29.31007379718757 L36.048166271972164,37.664553707953175 A32.75,32.75 0 0,0 34.5484697622842,39.38975719311783 Z"/><path d="M28.74037332934512,27.629708984760704 A45,45 0 0,1 31.074557564105728,25.52800005964599 L38.948705782765835,34.91204448785347 A32.75,32.75 0 0,0 37.249938367467834,36.441621538909175 Z"/><path d="M32.91832395815783,24.06140204787183 A45,45 0 0,1 35.491243424323784,22.259824442455916 L42.16307160325786,32.53353889978736 A32.75,32.75 0 0,0 40.29055799177041,33.84468704595116 Z"/><path d="M37.500000000000014,21.02885682970026 A45,45 0 0,1 40.27329839449151,19.55426791653749 L45.64334494265771,30.564494983702282 A32.75,32.75 0 0,0 43.62500000000001,31.637668026059632 Z"/><path d="M42.41709921798268,18.57728159464019 A45,45 0 0,1 45.34943304942795,17.45166409803074 L49.33764294152812,29.034266649122372 A32.75,32.75 0 0,0 47.203555541976286,29.85346604943258 Z"/><path d="M47.59631898823504,16.74322368277565 A45,45 0 0,1 50.64397391320083,15.983357966978744 L53.19089212571838,27.96566607596786 A32.75,32.75 0 0,0 50.97287659699328,28.518679458020056 Z"/><path d="M52.960449073189615,15.554024673218798 A45,45 0 0,1 56.07799157635538,15.17123858587145 L57.14564942501419,27.374623637495333 A32.75,32.75 0 0,0 54.87677126993244,27.65320684550924 Z"/><path d="M58.429522648387454,15.027412784140694 A45,45 0 0,1 61.570477351612546,15.027412784140694 L61.14295851700691,27.26995041512461 A32.75,32.75 0 0,0 58.8570414829931,27.26995041512461 Z"/><path d="M63.92200842364461,15.17123858587145 A45,45 0 0,1 67.03955092681039,15.554024673218798 L65.12322873006757,27.65320684550924 A32.75,32.75 0 0,0 62.8543505749858,27.374623637495333 Z"/><path d="M69.35602608679918,15.983357966978751 A45,45 0 0,1 72.40368101176496,16.74322368277565 L69.02712340300673,28.518679458020056 A32.75,32.75 0 0,0 66.80910787428162,27.965666075967867 Z"/><path d="M74.65056695057206,17.451664098030747 A45,45 0 0,1 77.58290078201732,18.577281594640183 L72.79644445802371,29.853466049432576 A32.75,32.75 0 0,0 70.66235705847188,29.034266649122376 Z"/><path d="M79.72670160550848,19.554267916537484 A45,45 0 0,1 82.5,21.02885682970026 L76.375,31.637668026059636 A32.75,32.75 0 0,0 74.3566550573423,30.56449498370228 Z"/><path d="M84.50875657567622,22.259824442455916 A45,45 0 0,1 87.08167604184217,24.061402047871823 L79.70944200822959,33.84468704595116 A32.75,32.75 0 0,0 77.83692839674214,32.53353889978736 Z"/><path d="M88.92544243589427,25.52800005964599 A45,45 0 0,1 91.25962667065488,27.629708984760697 L82.75006163253215,36.441621538909175 A32.75,32.75 0 0,0 81.05129421723416,34.91204448785347 Z"/><path d="M92.91091657286267,29.31007379718757 A45,45 0 0,1 94.97156826556369,31.680582402757317 L85.4515302377158,39.38975719311783 A32.75,32.75 0 0,0 83.95183372802784,37.664553707953175 Z"/><path d="M96.40576474687263,33.54966364683871 A45,45 0 0,1 98.36880739593416,36.4875645877823 L87.92396538259652,42.888172005552676 A32.75,32.75 0 0,0 86.49530656577953,40.750032987421505 Z"/><path d="M99.54677006978844,38.52785578831762 A45,45 0 0,1 101.10954559391703,41.69685106158899 L89.91861373779517,46.67937493926755 A32.75,32.75 0 0,0 88.78126043967936,44.37305060149782 Z"/><path d="M102.01111919237408,43.87344227046149 A45,45 0 0,1 103.0337140183366,46.84327328747685 L91.3189807577894,50.42482667033037 A32.75,32.75 0 0,0 90.57475896778335,48.263449652391415 Z"/><path d="M103.66330768241984,49.11351469801495 A45,45 0 0,1 104.31634888554936,52.185832004988136 L92.25245391114981,54.31302218140803 A32.75,32.75 0 0,0 91.77718503553888,52.077057919110885 Z"/><path d="M104.66457682385949,54.51587954676836 A45,45 0 0,1 104.93832906395582,57.64488196906753 L92.70511726321229,58.28599743304359 A32.75,32.75 0 0,0 92.50588646625329,56.00877900348142 Z"/><path d="M105,60 A45,45 0 0,1 104.89038226169208,63.13904131848564 L92.67022264600925,62.284524515120104 A32.75,32.75 0 0,0 92.75,60 Z"/><path d="M104.66457682385949,65.48412045323164 A45,45 0 0,1 104.17322325514488,68.58640479194452 L92.14829025791099,66.24899459858185 A32.75,32.75 0 0,0 92.50588646625329,63.99122099651858 Z"/><path d="M103.66330768241984,70.88648530198505 A45,45 0 0,1 102.79754323328191,73.90576474687263 L91.14710090866627,70.12030656577953 A32.75,32.75 0 0,0 91.77718503553888,67.92294208088911 Z"/><path d="M102.01111919237408,76.12655772953852 A45,45 0 0,1 100.78385041664924,79.01782177833147 L89.68158002545029,73.84074807200791 A32.75,32.75 0 0,0 90.57475896778335,71.73655034760858 Z"/><path d="M99.73264167865172,81.12622032536508 A45,45 0 0,1 98.16216432703916,83.84636689049422 L87.77357514912295,77.35485590363746 A32.75,32.75 0 0,0 88.91653366612985,75.37519368123793 Z"/><path d="M96.86184199300463,85.81093963579707 A45,45 0 0,1 94.97156826556369,88.31941759724268 L85.4515302377158,80.61024280688217 A32.75,32.75 0 0,0 86.82722945046449,78.78462829049676 Z"/><path d="M93.44151714648274,90.11087728614862 A45,45 0 0,1 91.25962667065488,92.3702910152393 L82.75006163253215,83.55837846109083 A32.75,32.75 0 0,0 84.33799303438467,81.91402735825261 Z"/><path d="M89.52265630457282,93.96193111002475 A45,45 0 0,1 87.08167604184217,95.93859795212818 L79.70944200822959,86.15531295404884 A32.75,32.75 0 0,0 81.48593319943912,84.71673875229578 Z"/><path d="M85.1636806561836,97.30669076497688 A45,45 0 0,1 82.5,98.97114317029974 L76.375,88.36233197394037 A32.75,32.75 0 0,0 78.31356758866696,87.15098050117761 Z"/><path d="M80.4295724882796,100.09529358847655 A45,45 0 0,1 77.58290078201732,101.42271840535982 L72.79644445802371,90.14653395056743 A32.75,32.75 0 0,0 74.86818886647016,89.18046366716905 Z"/><path d="M75.39090644965509,102.28616793536588 A45,45 0 0,1 72.40368101176496,103.25677631722435 L69.02712340300673,91.48132054197994 A32.75,32.75 0 0,0 71.20115969391566,90.77493333073849 Z"/><path d="M70.12279744547392,103.8466529153356 A45,45 0 0,1 67.03955092681039,104.4459753267812 L65.12322873006757,92.34679315449077 A32.75,32.75 0 0,0 67.36714702976158,91.91061962171645 Z"/><path d="M64.7037808470444,104.7534852915723 A45,45 0 0,1 61.17796267385429,104.98457962390007 L60.857295057082844,92.7387773929495 A32.75,32.75 0 0,0 63.423307172015654,92.57059207331095 Z"/><path d="M58.82203732614571,104.98457962390007 A45,45 0 0,1 55.29621915295559,104.7534852915723 L56.576692827984346,92.57059207331095 A32.75,32.75 0 0,0 59.142704942917156,92.7387773929495 Z"/><path d="M52.960449073189615,104.4459753267812 A45,45 0 0,1 49.87720255452607,103.8466529153356 L52.63285297023842,91.91061962171645 A32.75,32.75 0 0,0 54.87677126993244,92.34679315449077 Z"/><path d="M47.59631898823504,103.25677631722435 A45,45 0 0,1 44.60909355034491,102.28616793536588 L48.79884030608435,90.7749333307385 A32.75,32.75 0 0,0 50.97287659699328,91.48132054197994 Z"/><path d="M42.41709921798268,101.4227184053598 A45,45 0 0,1 39.570427511720396,100.09529358847655 L45.131811133529844,89.18046366716905 A32.75,32.75 0 0,0 47.203555541976286,90.14653395056742 Z"/><path d="M37.500000000000014,98.97114317029974 A45,45 0 0,1 34.8363193438164,97.30669076497688 L41.686432411333044,87.15098050117761 A32.75,32.75 0 0,0 43.62500000000001,88.36233197394037 Z"/><path d="M32.91832395815783,95.93859795212816 A45,45 0 0,1 30.477343695427177,93.96193111002475 L38.51406680056089,84.71673875229578 A32.75,32.75 0 0,0 40.29055799177041,86.15531295404884 Z"/><path d="M28.74037332934512,92.3702910152393 A45,45 0 0,1 26.558482853517262,90.11087728614864 L35.66200696561534,81.91402735825261 A32.75,32.75 0 0,0 37.249938367467834,83.55837846109083 Z"/><path d="M25.02843173443631,88.31941759724268 A45,45 0 0,1 23.13815800699536,85.81093963579707 L33.172770549535514,78.78462829049676 A32.75,32.75 0 0,0 34.5484697622842,80.61024280688217 Z"/><path d="M21.83783567296083,83.84636689049422 A45,45 0 0,1 20.267358321348283,81.12622032536508 L31.083466333870142,75.37519368123792 A32.75,32.75 0 0,0 32.22642485087705,77.35485590363746 Z"/><path d="M19.216149583350756,79.01782177833148 A45,45 0 0,1 17.988880807625918,76.1265577295385 L29.425241032216643,71.73655034760858 A32.75,32.75 0 0,0 30.318419974549716,73.84074807200791 Z"/><path d="M17.202456766718093,73.90576474687263 A45,45 0 0,1 16.33669231758016,70.88648530198505 L28.222814964461115,67.92294208088911 A32.75,32.75 0 0,0 28.85289909133372,70.12030656577953 Z"/><path d="M15.826776744855124,68.58640479194452 A45,45 0 0,1 15.335423176140509,65.48412045323164 L27.494113533746706,63.991220996518585 A32.75,32.75 0 0,0 27.851709742089007,66.24899459858185 Z"/><path d="M15.10961773830791,63.139041318485646 A45,45 0 0,1 15,60.00000000000001 L27.25,60.00000000000001 A32.75,32.75 0 0,0 27.329777353990757,62.28452451512011 Z"/><path d="M15.06167093604418,57.64488196906754 A45,45 0 0,1 15.335423176140509,54.515879546768375 L27.4941135337467,56.00877900348142 A32.75,32.75 0 0,0 27.294882736787706,58.2859974330436 Z"/><path d="M15.68365111445064,52.18583200498813 A45,45 0 0,1 16.33669231758015,49.11351469801496 L28.22281496446111,52.07705791911089 A32.75,32.75 0 0,0 27.747546088850186,54.31302218140803 Z"/><path d="M16.966285981663404,46.84327328747685 A45,45 0 0,1 17.988880807625918,43.87344227046148 L29.425241032216643,48.263449652391415 A32.75,32.75 0 0,0 28.68101924221059,50.42482667033037 Z"/><path d="M18.89045440608296,41.69685106158899 A45,45 0 0,1 20.453229930211556,38.52785578831762 L31.218739560320635,44.37305060149782 A32.75,32.75 0 0,0 30.081386262204823,46.67937493926755 Z"/></clipPath><g clip-path="url(#at-avkyvd)"><path d="M27.493093734000233,40.07974222020445 A38.125,38.125 0 0,1 92.50690626599976,40.07974222020445 L88.77660554695062,42.36567344083673 A33.75,33.75 0 0,0 31.223394453049387,42.36567344083672 Z" fill="hsl(22.000000000000004, 89.4%, 49.192%)"/><path d="M22.483832768419944,37.01006315249825 A44,44 0 0,1 97.51616723158006,37.010063152498255 L93.7858665125309,39.295994373130526 A39.625,39.625 0 0,0 26.2141334874691,39.295994373130526 Z" fill="hsl(22.000000000000004, 89.4%, 49.192%)"/><path d="M93.50490242023743,41.80832226510243 A38.125,38.125 0 0,1 60.99799615423766,98.11193551469313 L60.88347200539072,93.73843471792506 A33.75,33.75 0 0,0 89.66007755234133,43.89589184123822 Z" fill="hsla(22.000000000000004, 89.4%, 49.192%, 0.125)"/><path d="M98.66795295712647,39.00501454857723 A44,44 0 0,1 61.15178572554642,103.98492229892452 L61.03726157669947,99.61142150215645 A39.625,39.625 0 0,0 94.82312808923038,41.092584124713014 Z" fill="hsla(22.000000000000004, 89.4%, 49.192%, 0.125)"/><path d="M59.00200384576234,98.11193551469313 A38.125,38.125 0 0,1 26.49509757976257,41.80832226510243 L30.33992244765867,43.89589184123822 A33.75,33.75 0 0,0 59.116527994609285,93.73843471792506 Z" fill="hsla(22.000000000000004, 89.4%, 49.192%, 0.125)"/><path d="M58.84821427445359,103.98492229892452 A44,44 0 0,1 21.332047042873526,39.00501454857723 L25.17687191076962,41.092584124713014 A39.625,39.625 0 0,0 58.96273842330053,99.61142150215645 Z" fill="hsla(22.000000000000004, 89.4%, 49.192%, 0.125)"/></g><circle cx="60" cy="60" r="47.6875" fill="none" stroke="hsl(22.000000000000004, 89.4%, 49.192%)" stroke-width="4.375"/></svg>