<svg xmlns="http://www.w3.org/2000/svg" width="120" height="120" viewBox="0 0 120 120" style="overflow:visible"><defs><radialGradient id="sg-ya82dj" cx="50%" cy="50%" r="50%"><stop offset="0%" stop-color="hsla(13.5, 96.47000000000001%, 47.236000000000004%, 0.95)"/><stop offset="100%" stop-color="hsla(13.5, 87.7%, 41.236000000000004%, 0.85)"/></radialGradient></defs><line x1="60" y1="10.625" x2="60" y2="7.225000000000001" stroke="hsl(13.5, 87.7%, 41.236000000000004%)" stroke-width="3.0" stroke-linecap="round"/><line x1="102.76000431185666" y1="84.6875" x2="105.70449068472375" y2="86.38749999999999" stroke="hsl(13.5, 87.7%, 41.236000000000004%)" stroke-width="3.0" stroke-linecap="round"/><line x1="17.239995688143352" y1="84.68750000000001" x2="14.295509315276263" y2="86.38750000000002" stroke="hsl(13.5, 87.7%, 41.236000000000004%)" stroke-width="3.0" stroke-linecap="round"/><circle cx="60" cy="60" r="33.75" fill="none"/><path d="M60,28.25L65.49926131403119,56.824999999999996L87.49630657015592,75.875L60,66.35000000000001L32.50369342984408,75.87500000000001L54.50073868596881,56.824999999999996Z" fill="url(#sg-ya82dj)" stroke="none"/><path d="M22.483832768419944,37.01006315249825 A44,44 0 0,1 97.51616723158006,37.010063152498255 L88.77660554695062,42.36567344083673 A33.75,33.75 0 0,0 31.223394453049387,42.36567344083672 Z" fill="hsl(13.5, 87.7%, 41.236000000000004%)"/><path d="M98.66795295712647,39.00501454857723 A44,44 0 0,1 61.15178572554642,103.98492229892452 L60.88347200539072,93.73843471792506 A33.75,33.75 0 0,0 89.66007755234133,43.89589184123822 Z" fill="hsl(13.5, 87.7%, 41.236000000000004%)"/><path d="M58.84821427445359,103.98492229892452 A44,44 0 0,1 21.332047042873526,39.00501454857723 L30.33992244765867,43.89589184123822 A33.75,33.75 0 0,0 59.116527994609285,93.73843471792506 Z" fill="hsl(13.5, 87.7%, 41.236000000000004%)"/><circle cx="60" cy="60" r="47.6875" fill="none" stroke="hsl(13.5, 87.7%, 41.236000000000004%)" stroke-width="4.375"/></svg>