<svg xmlns="http://www.w3.org/2000/svg" width="120" height="120" viewBox="0 0 120 120" style="overflow:visible"><defs><radialGradient id="sg-h8hsej" cx="50%" cy="50%" r="50%"><stop offset="0%" stop-color="hsla(24.5, 98.89000000000001%, 57.532%, 0.95)"/><stop offset="100%" stop-color="hsla(24.5, 89.9%, 51.532%, 0.85)"/></radialGradient></defs><path d="M55.4,10.625 A4.6,4.6 0 0,1 64.6,10.625 Z" fill="hsl(24.5, 89.9%, 51.532%)"/><path d="M91.66070612762768,21.8339114854561 A4.6,4.6 0 0,1 98.16608851454392,28.339293872372338 Z" fill="hsl(24.5, 89.9%, 51.532%)"/><path d="M109.375,55.4 A4.6,4.6 0 0,1 109.375,64.6 Z" fill="hsl(24.5, 89.9%, 51.532%)"/><path d="M98.16608851454392,91.66070612762766 A4.6,4.6 0 0,1 91.66070612762768,98.1660885145439 Z" fill="hsl(24.5, 89.9%, 51.532%)"/><path d="M64.6,109.375 A4.6,4.6 0 0,1 55.4,109.375 Z" fill="hsl(24.5, 89.9%, 51.532%)"/><path d="M28.339293872372338,98.16608851454392 A4.6,4.6 0 0,1 21.8339114854561,91.66070612762768 Z" fill="hsl(24.5, 89.9%, 51.532%)"/><path d="M10.625,64.60000000000001 A4.6,4.6 0 0,1 10.625,55.400000000000006 Z" fill="hsl(24.5, 89.9%, 51.532%)"/><path d="M21.833911485456092,28.339293872372338 A4.6,4.6 0 0,1 28.33929387237233,21.8339114854561 Z" fill="hsl(24.5, 89.9%, 51.532%)"/><circle cx="60" cy="60" r="33.75" fill="none"/><path d="M60,28.25L62.43003979551832,54.13336496855332L82.45064030267288,37.54935969732712L65.86663503144668,57.56996020448168L91.75,60L65.86663503144668,62.43003979551832L82.45064030267288,82.45064030267288L62.43003979551832,65.86663503144668L60,91.75L57.56996020448168,65.86663503144668L37.54935969732712,82.45064030267288L54.13336496855333,62.430039795518326L28.25,60.00000000000001L54.13336496855333,57.569960204481674L37.54935969732711,37.54935969732712L57.569960204481674,54.13336496855333Z" fill="url(#sg-h8hsej)" stroke="none"/><path d="M60,28.25L62.43003979551832,54.13336496855332L82.45064030267288,37.54935969732712L65.86663503144668,57.56996020448168L91.75,60L65.86663503144668,62.43003979551832L82.45064030267288,82.45064030267288L62.43003979551832,65.86663503144668L60,91.75L57.56996020448168,65.86663503144668L37.54935969732712,82.45064030267288L54.13336496855333,62.430039795518326L28.25,60.00000000000001L54.13336496855333,57.569960204481674L37.54935969732711,37.54935969732712L57.569960204481674,54.13336496855333Z" fill="none" stroke="hsl(24.5, 89.9%, 71.352%)" stroke-width="1" stroke-linejoin="round"/><path d="M22.483832768419944,37.01006315249825 A44,44 0 0,1 97.51616723158006,37.010063152498255 L88.77660554695062,42.36567344083673 A33.75,33.75 0 0,0 31.223394453049387,42.36567344083672 Z" fill="hsla(24.5, 89.9%, 51.532%, 0.5)"/><path d="M98.66795295712647,39.00501454857723 A44,44 0 0,1 61.15178572554642,103.98492229892452 L60.88347200539072,93.73843471792506 A33.75,33.75 0 0,0 89.66007755234133,43.89589184123822 Z" fill="hsla(24.5, 89.9%, 51.532%, 0.5)"/><path d="M58.84821427445359,103.98492229892452 A44,44 0 0,1 21.332047042873526,39.00501454857723 L30.33992244765867,43.89589184123822 A33.75,33.75 0 0,0 59.116527994609285,93.73843471792506 Z" fill="hsla(24.5, 89.9%, 51.532%, 0.125)"/><circle cx="60" cy="60" r="47.6875" fill="none" stroke="hsl(24.5, 89.9%, 51.532%)" stroke-width="4.375"/></svg>